#!OML:ASF H:\Terrain\Patient Classification 1\Takeo\Monday\TakeoMonday.ASF
:FULLY-SPECIFIED
:DEGREES
840
root 4.34364 15.686 3.85226 -166.799 80.4449 -171.572
lowerback 25.2364 -5.87795 -2.48676
upperback 12.7927 -6.85771 -7.69445
thorax -0.438325 -2.66566 -5.23523
lowerneck -8.60426 -11.5434 -6.54427
upperneck -3.08435 -14.9197 11.2062
head 1.80472 -7.21044 3.62826
rclavicle -9.38264e-014 -6.20208e-014
rhumerus -46.7288 -40.1373 -0.703564
rradius 35.0913
rwrist -20.1285
rhand -50.4335 29.7157
rfingers 7.12502
rthumb -23.0051 1.06853
lclavicle -9.38264e-014 -6.20208e-014
lhumerus -11.8811 4.75077 80.1468
lradius 84.2498
lwrist 32.4282
lhand -32.277 23.7248
lfingers 7.12502
lthumb -5.51617 53.633
rfemur -40.762 -6.71929 25.1093
rtibia 67.9902
rfoot -30.9355 -9.66267
rtoes 6.79146
lfemur -34.6271 24.9273 -4.39862
ltibia 60.0278
lfoot -17.5675 7.30336
ltoes -12.7899
841
root 4.35266 15.7244 3.84021 -166.939 80.5787 -171.719
lowerback 25.1083 -5.80782 -2.55706
upperback 12.6738 -6.80725 -7.60282
thorax -0.487671 -2.65762 -5.10934
lowerneck -8.47771 -11.5091 -5.47587
upperneck -3.652 -14.9089 9.96971
head 1.56032 -7.25101 3.45154
rclavicle 7.95139e-014 7.79236e-014
rhumerus -45.4285 -38.8616 -2.7375
rradius 35.6493
rwrist -21.615
rhand -50.5246 30.3729
rfingers 7.12502
rthumb -23.0925 1.73671
lclavicle 7.95139e-014 7.79236e-014
lhumerus -12.102 4.76605 80.198
lradius 84.2341
lwrist 32.6303
lhand -30.228 23.8705
lfingers 7.12502
lthumb -3.53766 53.8209
rfemur -40.4889 -6.33178 24.9173
rtibia 67.5996
rfoot -30.6482 -9.94112
rtoes 5.69356
lfemur -34.1912 24.8086 -4.46092
ltibia 59.4468
lfoot -17.3807 7.27233
ltoes -10.9594
842
root 4.36622 15.7635 3.82884 -165.912 80.7028 -170.581
lowerback 24.9176 -5.74 -2.45647
upperback 12.6974 -6.6941 -7.53926
thorax -0.366799 -2.60364 -5.13804
lowerneck -8.51328 -11.4677 -5.52092
upperneck -3.93445 -14.8146 9.69791
head 1.44258 -7.2061 3.3826
rclavicle 2.8625e-014 -1.27222e-014
rhumerus -44.7188 -38.8129 -4.19069
rradius 36.0793
rwrist -21.8278
rhand -50.4472 31.1542
rfingers 7.12502
rthumb -23.0183 2.50875
lclavicle 2.8625e-014 -1.27222e-014
lhumerus -12.2405 4.69855 80.1709
lradius 84.2715
lwrist 33.0677
lhand -43.6524 21.047
lfingers 7.12502
lthumb -16.4865 50.3665
rfemur -40.0427 -6.00832 25.0139
rtibia 67.1663
rfoot -30.6309 -10.3547
rtoes 4.63176
lfemur -33.6081 24.6897 -4.23684
ltibia 58.8118
lfoot -17.2929 7.50776
ltoes -11.4698
843
root 4.38381 15.8084 3.81547 -165.415 80.7721 -169.941
lowerback 24.6979 -5.63128 -2.27227
upperback 12.7412 -6.50437 -7.50373
thorax -0.21593 -2.50414 -5.26649
lowerneck -8.87126 -11.4824 -5.79077
upperneck -3.74433 -14.8067 9.804
head 1.60159 -7.18379 3.4376
rclavicle -5.08889e-014 2.38542e-014
rhumerus -44.3916 -39.2654 -5.09094
rradius 36.4004
rwrist -21.2588
rhand -50.2788 31.5436
rfingers 7.12502
rthumb -22.8567 2.87803
lclavicle -5.08889e-014 2.38542e-014
lhumerus -12.3211 4.33836 80.2157
lradius 84.2273
lwrist 33.7771
lhand -38.3772 22.4948
lfingers 7.12502
lthumb -11.4031 52.1647
rfemur -39.4711 -5.81829 24.9921
rtibia 66.5945
rfoot -30.7333 -10.2696
rtoes 4.33445
lfemur -32.9765 24.4233 -4.07305
ltibia 58.1668
lfoot -17.335 7.84114
ltoes -12.2303
844
root 4.40025 15.8581 3.80197 -168.654 80.9663 -173.066
lowerback 24.5819 -5.46476 -2.69186
upperback 12.707 -6.37124 -7.52536
thorax -0.140882 -2.45418 -5.09373
lowerneck -9.14151 -11.532 -6.52955
upperneck -3.52363 -14.8181 10.2776
head 1.83703 -7.16395 3.69934
rclavicle -1.43125e-014 -3.49861e-014
rhumerus -43.6942 -39.5434 -6.00277
rradius 36.539
rwrist -20.8505
rhand -49.5063 31.848
rfingers 7.12502
rthumb -22.1152 3.09274
lclavicle -1.43125e-014 -3.49861e-014
lhumerus -12.5412 4.1962 80.4462
lradius 84.2258
lwrist 34.1719
lhand -39.2011 23.2559
lfingers 7.12502
lthumb -12.1976 52.8803
rfemur -38.9 -5.70562 24.2453
rtibia 65.9813
rfoot -30.5849 -9.55974
rtoes 5.25803
lfemur -32.2551 24.0601 -4.60501
ltibia 57.4816
lfoot -17.3416 8.12366
ltoes -11.4174
845
root 4.41024 15.9027 3.79284 -170.852 81.0534 -175.197
lowerback 24.5297 -5.31843 -3.02061
upperback 12.5875 -6.26816 -7.4408
thorax -0.194433 -2.42555 -4.83949
lowerneck -9.22632 -11.5146 -7.16887
upperneck -3.4132 -14.736 11.0871
head 1.8223 -7.09015 3.67499
rclavicle 3.18055e-015 9.38264e-014
rhumerus -43.1113 -39.5851 -7.03935
rradius 36.8232
rwrist -20.5849
rhand -49.1058 32.5369
rfingers 7.12502
rthumb -21.7306 3.73669
lclavicle 3.18055e-015 9.38264e-014
lhumerus -12.8799 4.18862 80.6336
lradius 84.2216
lwrist 33.7079
lhand -42.3075 23.4814
lfingers 7.12502
lthumb -15.1914 52.9037
rfemur -38.419 -5.58179 23.7529
rtibia 65.3145
rfoot -30.0827 -9.28589
rtoes 5.80168
lfemur -31.7231 23.7283 -4.99713
ltibia 56.8448
lfoot -17.1985 8.54218
ltoes -11.7077
846
root 4.41822 15.9411 3.78166 -170.082 81.0587 -174.429
lowerback 24.3555 -5.19151 -2.76285
upperback 12.4807 -6.07292 -7.37555
thorax -0.239603 -2.32963 -4.96514
lowerneck -9.24199 -11.5307 -7.02826
upperneck -3.45306 -14.7692 11.1877
head 1.81457 -7.10596 3.68147
rclavicle 3.18055e-014 -1.11319e-014
rhumerus -43.025 -39.234 -8.24684
rradius 37.3452
rwrist -20.6259
rhand -49.6449 33.0602
rfingers 7.12502
rthumb -22.2483 4.32076
lclavicle 3.18055e-014 -1.11319e-014
lhumerus -13.1067 3.70718 80.5925
lradius 84.2205
lwrist 33.4643
lhand -41.2727 23.6286
lfingers 7.12502
lthumb -14.1944 53.1236
rfemur -38.0332 -5.36215 23.8673
rtibia 64.5434
rfoot -29.5447 -9.95591
rtoes 4.62721
lfemur -31.4142 23.4336 -4.90697
ltibia 56.287
lfoot -17.0423 8.93931
ltoes -12.3473
847
root 4.42916 15.9777 3.76357 -170.606 81.1865 -175.017
lowerback 24.1028 -5.08712 -2.75317
upperback 12.3604 -5.95644 -7.34428
thorax -0.242317 -2.28355 -4.97232
lowerneck -9.28059 -11.5924 -6.79782
upperneck -3.56683 -14.8673 10.6181
head 1.91016 -7.17473 3.84958
rclavicle -2.54444e-014 -5.08889e-014
rhumerus -42.1363 -38.9976 -9.56542
rradius 37.2757
rwrist -20.4169
rhand -49.762 32.9061
rfingers 7.12502
rthumb -22.3606 4.18009
lclavicle -2.54444e-014 -5.08889e-014
lhumerus -13.4026 3.32906 80.5871
lradius 84.3784
lwrist 34.2718
lhand -36.4287 24.0147
lfingers 7.12502
lthumb -9.52348 53.7795
rfemur -37.6976 -5.14446 23.792
rtibia 63.6773
rfoot -28.7485 -11.076
rtoes 1.69386
lfemur -31.0938 23.0998 -5.07118
ltibia 55.7717
lfoot -17.0481 9.28675
ltoes -12.1412
848
root 4.44135 16.0121 3.74571 -171.84 81.2879 -176.199
lowerback 24.0062 -5.0381 -2.91272
upperback 12.1826 -5.96142 -7.23253
thorax -0.365764 -2.30932 -4.75527
lowerneck -8.99254 -11.5683 -6.66443
upperneck -3.87157 -14.826 10.211
head 1.69991 -7.17188 3.71726
rclavicle 2.38542e-014 3.18055e-014
rhumerus -40.7505 -38.4925 -11.0355
rradius 37.0979
rwrist -20.2223
rhand -48.9563 33.0508
rfingers 7.12502
rthumb -21.587 4.23399
lclavicle 2.38542e-014 3.18055e-014
lhumerus -13.945 3.38431 80.6597
lradius 84.6131
lwrist 34.9722
lhand -33.012 24.3737
lfingers 7.12502
lthumb -6.22576 54.2622
rfemur -37.1912 -5.02052 23.5697
rtibia 62.791
rfoot -27.9632 -11.9128
rtoes -0.552952
lfemur -30.6275 22.691 -5.28558
ltibia 55.2804
lfoot -17.122 9.62624
ltoes -11.8115
849
root 4.45516 16.0492 3.7339 -170.229 81.3056 -174.453
lowerback 23.8989 -4.95263 -2.51543
upperback 12.0838 -5.79571 -7.14255
thorax -0.446901 -2.22414 -4.9216
lowerneck -8.5987 -11.5512 -6.58578
upperneck -4.27391 -14.8029 10.3116
head 1.49751 -7.17504 3.77349
rclavicle 1.59028e-014 2.8625e-014
rhumerus -40.4207 -37.8252 -12.4237
rradius 37.5689
rwrist -20.3314
rhand -48.7478 33.0951
rfingers 7.12502
rthumb -21.3868 4.25538
lclavicle 1.59028e-014 2.8625e-014
lhumerus -14.2723 3.11159 80.5551
lradius 84.6105
lwrist 34.8483
lhand -32.0109 24.4173
lfingers 7.12502
lthumb -5.25927 54.332
rfemur -36.5604 -4.81234 23.747
rtibia 61.9486
rfoot -27.9429 -11.6268
rtoes 1.77
lfemur -30.1251 22.4258 -4.95741
ltibia 54.775
lfoot -17.0329 9.81002
ltoes -12.1657
850
root 4.46645 16.088 3.72156 -167.41 81.2735 -171.525
lowerback 23.7613 -4.87495 -1.87435
upperback 12.0373 -5.58234 -7.10234
thorax -0.478398 -2.10174 -5.29677
lowerneck -8.72203 -11.5098 -6.32102
upperneck -4.35971 -14.7555 10.4027
head 1.47221 -7.14939 3.75779
rclavicle 1.59028e-015 4.92986e-014
rhumerus -40.4186 -37.8074 -13.5938
rradius 38.054
rwrist -20.0926
rhand -49.161 32.7964
rfingers 7.12502
rthumb -21.7836 4.00225
lclavicle 1.59028e-015 4.92986e-014
lhumerus -14.4084 2.57089 80.2497
lradius 84.4266
lwrist 34.6502
lhand -32.7215 24.1136
lfingers 7.12502
lthumb -5.94532 54.0102
rfemur -36.0824 -4.66352 24.1705
rtibia 61.2778
rfoot -27.9745 -11.4295
rtoes 3.97452
lfemur -29.6943 22.2518 -4.45979
ltibia 54.2175
lfoot -16.7735 10.0467
ltoes -12.7075
